<svg width="260" height="32" viewBox="0 0 260 32" fill="none" xmlns="http://www.w3.org/2000/svg">
<path d="M5.34431 31.5381V0.461918L0 0.461914V31.5381L5.34431 31.5381Z" fill="#F3BD00"/>
<path d="M11.5025 12.833V0.461918L31.1642 11.2414C30.7194 11.702 30.2551 12.2432 29.859 12.833H11.5025Z" fill="#F3BD00"/>
<path d="M31.2304 20.7224C30.8743 20.3024 30.458 19.7681 30.0732 19.167H11.5025V31.5381L31.2304 20.7224Z" fill="#F3BD00"/>
<path d="M33.4359 12.4377L40.0438 16.0386L33.4359 19.6395C33.4359 19.6395 31.2333 17.7964 31.2333 16.0386C31.2333 14.2808 33.4359 12.4377 33.4359 12.4377Z" fill="#F3BD00"/>
<path d="M55.6371 23.9673C54.1927 23.9673 53.0659 23.5627 52.2566 22.7534C51.4575 21.9441 51.058 20.8275 51.058 19.4036V10.9983H48.538V8.32462H51.1041V4.2987L54.2234 2.02451V8.32462H58.2186V10.9983H54.2234V18.8658C54.2234 19.6853 54.3925 20.2743 54.7305 20.6329C55.0686 20.9812 55.5552 21.1553 56.1903 21.1553C56.805 21.1553 57.4759 20.9914 58.2033 20.6636L58.2186 23.5371C57.9113 23.6498 57.522 23.7471 57.0508 23.829C56.5796 23.9212 56.1083 23.9673 55.6371 23.9673Z" fill="#2E2E2E"/>
<path d="M67.3467 23.9673C65.7179 23.9673 64.335 23.6139 63.1979 22.9071C62.0608 22.19 61.2054 21.2322 60.6317 20.0336C60.0581 18.8351 59.7712 17.5136 59.7712 16.0691C59.7712 14.6452 60.0427 13.3237 60.5856 12.1047C61.1388 10.8754 61.9635 9.89196 63.0596 9.15439C64.1659 8.40657 65.5079 8.03266 67.0855 8.03266C68.7348 8.03266 70.0768 8.4117 71.1114 9.16976C72.1563 9.91758 72.9041 10.8652 73.3549 12.0125C73.8159 13.1598 74.0464 14.343 74.0464 15.5621C74.0464 15.8489 74.031 16.1306 74.0003 16.4072C73.9798 16.6838 73.9542 16.8784 73.9234 16.9911H63.121C63.2645 18.2819 63.6845 19.2858 64.3811 20.0029C65.0879 20.72 66.0816 21.0785 67.3621 21.0785C68.1509 21.0785 68.8628 20.9453 69.498 20.679C70.1434 20.4126 70.7529 19.967 71.3265 19.3421L73.5085 21.2629C72.6583 22.1849 71.7312 22.8661 70.7273 23.3066C69.7336 23.7471 68.6067 23.9673 67.3467 23.9673ZM70.9117 14.6862C70.9322 14.3481 70.9014 14.0255 70.8195 13.7181C70.6556 12.8167 70.2458 12.0893 69.5902 11.5361C68.9346 10.983 68.0894 10.7064 67.0548 10.7064C65.9074 10.7064 65.006 11.0649 64.3503 11.782C63.705 12.4991 63.2952 13.4672 63.121 14.6862H70.9117Z" fill="#2E2E2E"/>
<path d="M82.8671 23.9673C81.3305 23.9673 80.0142 23.6037 78.918 22.8763C77.8219 22.149 76.9973 21.1809 76.4441 19.9721C75.8909 18.7633 75.6143 17.447 75.6143 16.023C75.6143 14.6299 75.8858 13.3237 76.4287 12.1047C76.9717 10.8856 77.7861 9.90221 78.8719 9.15439C79.9681 8.40657 81.2895 8.03266 82.8364 8.03266C84.3423 8.03266 85.6586 8.40657 86.7855 9.15439C87.9123 9.90221 88.7575 11.0034 89.3209 12.4581L86.3091 13.6259C86.0428 12.8064 85.6023 12.1508 84.9877 11.6591C84.373 11.1674 83.6559 10.9215 82.8364 10.9215C81.9349 10.9215 81.182 11.1622 80.5776 11.6437C79.9834 12.1149 79.5429 12.7398 79.2561 13.5184C78.9795 14.2867 78.8412 15.1216 78.8412 16.023C78.8412 16.9348 78.9795 17.7748 79.2561 18.5431C79.5429 19.3114 79.9834 19.926 80.5776 20.387C81.182 20.848 81.9349 21.0785 82.8364 21.0785C83.6662 21.0785 84.3833 20.8378 84.9877 20.3563C85.6023 19.8748 86.0325 19.2294 86.2784 18.4202L89.1672 19.5112C88.6653 20.9146 87.8611 22.0107 86.7548 22.7995C85.6484 23.5781 84.3525 23.9673 82.8671 23.9673Z" fill="#2E2E2E"/>
<path d="M91.8262 1.96305H95.0531V10.3837C95.596 9.60513 96.267 9.02122 97.066 8.63194C97.8651 8.23242 98.7102 8.03266 99.6015 8.03266C100.831 8.03266 101.86 8.3195 102.69 8.89317C103.53 9.46684 104.15 10.2249 104.549 11.1674C104.949 12.1098 105.154 13.1496 105.164 14.2867V23.6754H101.937V14.763C101.937 13.5645 101.701 12.6271 101.23 11.951C100.759 11.2647 99.96 10.9215 98.8332 10.9215C98.0239 10.9215 97.3324 11.1213 96.7587 11.5208C96.1953 11.9203 95.7702 12.4735 95.4833 13.1803C95.1965 13.8769 95.0531 14.676 95.0531 15.5774V23.6754H91.8262V1.96305Z" fill="#2E2E2E"/>
<path d="M108.96 8.32462H112.233V10.4759C112.735 9.68708 113.406 9.08268 114.246 8.66268C115.096 8.24267 116.008 8.03266 116.981 8.03266C118.333 8.03266 119.506 8.39121 120.5 9.10829C121.494 9.82538 122.247 10.7934 122.759 12.0125C123.281 13.2213 123.542 14.553 123.542 16.0077C123.542 17.4623 123.281 18.7992 122.759 20.0182C122.247 21.227 121.489 22.19 120.485 22.9071C119.491 23.6139 118.308 23.9673 116.935 23.9673C115.962 23.9673 115.06 23.7625 114.231 23.3527C113.401 22.9327 112.735 22.3232 112.233 21.5241V30.037H108.96V8.32462ZM116.197 21.0785C117.099 21.0785 117.857 20.8583 118.472 20.4178C119.097 19.9773 119.563 19.3729 119.87 18.6046C120.177 17.8363 120.331 16.9706 120.331 16.0077C120.331 15.0345 120.177 14.1689 119.87 13.4108C119.563 12.6527 119.097 12.0586 118.472 11.6283C117.857 11.1878 117.099 10.9676 116.197 10.9676C115.296 10.9676 114.523 11.1878 113.877 11.6283C113.242 12.0586 112.761 12.6527 112.433 13.4108C112.105 14.1689 111.941 15.0345 111.941 16.0077C111.941 16.9706 112.105 17.8363 112.433 18.6046C112.761 19.3729 113.242 19.9773 113.877 20.4178C114.523 20.8583 115.296 21.0785 116.197 21.0785Z" fill="#2E2E2E"/>
<path d="M131.994 8.03266C133.336 8.03266 134.494 8.29389 135.467 8.81634C136.44 9.33879 137.183 10.0764 137.695 11.0291C138.208 11.9715 138.464 13.0728 138.464 14.3328V23.6754H135.836L135.621 21.2783C135.129 22.1388 134.417 22.8046 133.485 23.2759C132.563 23.7368 131.595 23.9673 130.581 23.9673C129.526 23.9673 128.583 23.7727 127.753 23.3834C126.924 22.9941 126.273 22.4307 125.802 21.6931C125.331 20.9453 125.095 20.0643 125.095 19.0502C125.095 17.4931 125.648 16.3662 126.755 15.6696C127.861 14.973 129.377 14.6247 131.303 14.6247H135.575C135.554 13.713 135.431 12.9857 135.206 12.4427C134.981 11.8896 134.612 11.4798 134.1 11.2135C133.598 10.9471 132.901 10.8139 132.01 10.8139C131.139 10.8139 130.376 11.0188 129.72 11.4286C129.075 11.8383 128.542 12.3915 128.122 13.0881L125.694 11.3364C126.473 10.2608 127.364 9.44123 128.368 8.8778C129.382 8.31438 130.591 8.03266 131.994 8.03266ZM131.211 21.2629C132.01 21.2629 132.717 21.0887 133.331 20.7404C133.956 20.3921 134.458 19.926 134.837 19.3421C135.216 18.7582 135.462 18.1128 135.575 17.406V16.9297H131.487C130.463 16.9297 129.684 17.1345 129.152 17.5443C128.619 17.9438 128.353 18.4765 128.353 19.1424C128.353 19.7877 128.599 20.3051 129.09 20.6944C129.582 21.0734 130.289 21.2629 131.211 21.2629Z" fill="#2E2E2E"/>
<path d="M147.622 8.03266C148.964 8.03266 150.122 8.29389 151.095 8.81634C152.068 9.33879 152.811 10.0764 153.323 11.0291C153.835 11.9715 154.092 13.0728 154.092 14.3328V23.6754H151.464L151.249 21.2783C150.757 22.1388 150.045 22.8046 149.113 23.2759C148.191 23.7368 147.223 23.9673 146.209 23.9673C145.154 23.9673 144.211 23.7727 143.381 23.3834C142.552 22.9941 141.901 22.4307 141.43 21.6931C140.959 20.9453 140.723 20.0643 140.723 19.0502C140.723 17.4931 141.276 16.3662 142.383 15.6696C143.489 14.973 145.005 14.6247 146.931 14.6247H151.203C151.182 13.713 151.059 12.9857 150.834 12.4427C150.609 11.8896 150.24 11.4798 149.728 11.2135C149.226 10.9471 148.529 10.8139 147.638 10.8139C146.767 10.8139 146.004 11.0188 145.348 11.4286C144.703 11.8383 144.17 12.3915 143.75 13.0881L141.322 11.3364C142.101 10.2608 142.992 9.44123 143.996 8.8778C145.01 8.31438 146.219 8.03266 147.622 8.03266ZM146.839 21.2629C147.638 21.2629 148.345 21.0887 148.959 20.7404C149.584 20.3921 150.086 19.926 150.465 19.3421C150.844 18.7582 151.09 18.1128 151.203 17.406V16.9297H147.115C146.091 16.9297 145.312 17.1345 144.78 17.5443C144.247 17.9438 143.981 18.4765 143.981 19.1424C143.981 19.7877 144.227 20.3051 144.718 20.6944C145.21 21.0734 145.917 21.2629 146.839 21.2629Z" fill="#2E2E2E"/>
<path d="M162.912 23.9673C161.468 23.9673 160.341 23.5627 159.532 22.7534C158.733 21.9441 158.333 20.8275 158.333 19.4036V10.9983H155.813V8.32462H158.379V4.2987L161.499 2.02451V8.32462H165.494V10.9983H161.499V18.8658C161.499 19.6853 161.668 20.2743 162.006 20.6329C162.344 20.9812 162.83 21.1553 163.466 21.1553C164.08 21.1553 164.751 20.9914 165.478 20.6636L165.494 23.5371C165.187 23.6498 164.797 23.7471 164.326 23.829C163.855 23.9212 163.384 23.9673 162.912 23.9673Z" fill="#2E2E2E"/>
<path d="M167.907 1.96305H171.134V10.3837C171.677 9.60513 172.348 9.02122 173.147 8.63194C173.946 8.23242 174.791 8.03266 175.682 8.03266C176.911 8.03266 177.941 8.3195 178.771 8.89317C179.611 9.46684 180.231 10.2249 180.63 11.1674C181.03 12.1098 181.234 13.1496 181.245 14.2867V23.6754H178.018V14.763C178.018 13.5645 177.782 12.6271 177.311 11.951C176.84 11.2647 176.041 10.9215 174.914 10.9215C174.105 10.9215 173.413 11.1213 172.839 11.5208C172.276 11.9203 171.851 12.4735 171.564 13.1803C171.277 13.8769 171.134 14.676 171.134 15.5774V23.6754H167.907V1.96305Z" fill="#2E2E2E"/>
<path d="M189.605 23.9673C188.58 23.9673 187.627 23.7829 186.746 23.4142C185.876 23.0351 185.133 22.528 184.518 21.8929C183.914 21.2475 183.484 20.5304 183.228 19.7417L185.778 18.6199C186.055 19.378 186.49 20.0182 187.084 20.5407C187.679 21.0529 188.467 21.309 189.451 21.309C190.066 21.309 190.583 21.2066 191.003 21.0017C191.433 20.7968 191.756 20.5304 191.971 20.2026C192.186 19.8748 192.294 19.5265 192.294 19.1577C192.294 18.7377 192.155 18.3997 191.879 18.1436C191.602 17.8772 191.254 17.6672 190.834 17.5136C190.414 17.3599 189.83 17.1858 189.082 16.9911C188.047 16.7248 187.202 16.4584 186.547 16.1921C185.901 15.9155 185.343 15.4955 184.872 14.9321C184.411 14.3584 184.18 13.5901 184.18 12.6271C184.18 11.6437 184.431 10.8088 184.933 10.1225C185.435 9.42586 186.106 8.90341 186.946 8.55511C187.786 8.20681 188.713 8.03266 189.727 8.03266C190.998 8.03266 192.119 8.3195 193.093 8.89317C194.066 9.46684 194.839 10.2761 195.413 11.321L192.954 12.6579C192.186 11.2544 191.075 10.5527 189.62 10.5527C188.893 10.5527 188.309 10.7115 187.868 11.0291C187.438 11.3364 187.223 11.7308 187.223 12.2123C187.223 12.5708 187.351 12.873 187.607 13.1189C187.873 13.3545 188.206 13.5491 188.606 13.7028C189.005 13.8462 189.553 14.0152 190.25 14.2098C191.326 14.5069 192.207 14.8091 192.893 15.1164C193.579 15.4135 194.168 15.8745 194.66 16.4994C195.162 17.1243 195.413 17.9592 195.413 19.0041C195.413 20.0899 195.141 21.0068 194.599 21.7546C194.056 22.4922 193.344 23.0454 192.463 23.4142C191.582 23.7829 190.629 23.9673 189.605 23.9673Z" fill="#2E2E2E"/>
<path d="M198.487 1.96305H201.714V10.3837C202.257 9.60513 202.928 9.02122 203.727 8.63194C204.526 8.23242 205.371 8.03266 206.262 8.03266C207.491 8.03266 208.521 8.3195 209.351 8.89317C210.191 9.46684 210.81 10.2249 211.21 11.1674C211.609 12.1098 211.814 13.1496 211.825 14.2867V23.6754H208.598V14.763C208.598 13.5645 208.362 12.6271 207.891 11.951C207.42 11.2647 206.621 10.9215 205.494 10.9215C204.684 10.9215 203.993 11.1213 203.419 11.5208C202.856 11.9203 202.431 12.4735 202.144 13.1803C201.857 13.8769 201.714 14.676 201.714 15.5774V23.6754H198.487V1.96305Z" fill="#2E2E2E"/>
<path d="M221.091 8.03266C222.433 8.03266 223.591 8.29389 224.564 8.81634C225.537 9.33879 226.28 10.0764 226.792 11.0291C227.304 11.9715 227.56 13.0728 227.56 14.3328V23.6754H224.932L224.717 21.2783C224.226 22.1388 223.514 22.8046 222.581 23.2759C221.66 23.7368 220.691 23.9673 219.677 23.9673C218.622 23.9673 217.68 23.7727 216.85 23.3834C216.02 22.9941 215.37 22.4307 214.898 21.6931C214.427 20.9453 214.192 20.0643 214.192 19.0502C214.192 17.4931 214.745 16.3662 215.851 15.6696C216.957 14.973 218.474 14.6247 220.399 14.6247H224.671C224.651 13.713 224.528 12.9857 224.302 12.4427C224.077 11.8896 223.708 11.4798 223.196 11.2135C222.694 10.9471 221.998 10.8139 221.106 10.8139C220.236 10.8139 219.472 11.0188 218.817 11.4286C218.171 11.8383 217.639 12.3915 217.219 13.0881L214.791 11.3364C215.569 10.2608 216.461 9.44123 217.465 8.8778C218.479 8.31438 219.688 8.03266 221.091 8.03266ZM220.307 21.2629C221.106 21.2629 221.813 21.0887 222.428 20.7404C223.053 20.3921 223.555 19.926 223.934 19.3421C224.313 18.7582 224.559 18.1128 224.671 17.406V16.9297H220.584C219.559 16.9297 218.781 17.1345 218.248 17.5443C217.716 17.9438 217.449 18.4765 217.449 19.1424C217.449 19.7877 217.695 20.3051 218.187 20.6944C218.678 21.0734 219.385 21.2629 220.307 21.2629Z" fill="#2E2E2E"/>
<path d="M234.306 23.9673C233.303 23.9673 232.534 23.7061 232.002 23.1837C231.479 22.651 231.218 21.7751 231.218 20.5561V1.96305H234.383V19.6956C234.383 20.1565 234.491 20.51 234.706 20.7558C234.921 20.9914 235.275 21.1092 235.766 21.1092C236.022 21.1092 236.391 21.0734 236.873 21.0017L236.888 23.6754C235.935 23.87 235.075 23.9673 234.306 23.9673Z" fill="#2E2E2E"/>
<path d="M244.787 8.03266C246.129 8.03266 247.286 8.29389 248.259 8.81634C249.233 9.33879 249.975 10.0764 250.488 11.0291C251 11.9715 251.256 13.0728 251.256 14.3328V23.6754H248.628L248.413 21.2783C247.921 22.1388 247.209 22.8046 246.277 23.2759C245.355 23.7368 244.387 23.9673 243.373 23.9673C242.318 23.9673 241.375 23.7727 240.546 23.3834C239.716 22.9941 239.065 22.4307 238.594 21.6931C238.123 20.9453 237.887 20.0643 237.887 19.0502C237.887 17.4931 238.441 16.3662 239.547 15.6696C240.653 14.973 242.169 14.6247 244.095 14.6247H248.367C248.347 13.713 248.224 12.9857 247.998 12.4427C247.773 11.8896 247.404 11.4798 246.892 11.2135C246.39 10.9471 245.693 10.8139 244.802 10.8139C243.931 10.8139 243.168 11.0188 242.513 11.4286C241.867 11.8383 241.334 12.3915 240.914 13.0881L238.487 11.3364C239.265 10.2608 240.156 9.44123 241.16 8.8778C242.175 8.31438 243.383 8.03266 244.787 8.03266ZM244.003 21.2629C244.802 21.2629 245.509 21.0887 246.124 20.7404C246.748 20.3921 247.25 19.926 247.629 19.3421C248.008 18.7582 248.254 18.1128 248.367 17.406V16.9297H244.28C243.255 16.9297 242.477 17.1345 241.944 17.5443C241.411 17.9438 241.145 18.4765 241.145 19.1424C241.145 19.7877 241.391 20.3051 241.883 20.6944C242.374 21.0734 243.081 21.2629 244.003 21.2629Z" fill="#2E2E2E"/>
<path d="M253.878 22.7601C253.878 22.3957 253.941 22.0565 254.067 21.7424C254.206 21.4157 254.389 21.133 254.616 20.8943C254.856 20.6555 255.133 20.4671 255.448 20.3288C255.776 20.1906 256.123 20.1215 256.489 20.1215C256.854 20.1215 257.195 20.1906 257.51 20.3288C257.838 20.4671 258.122 20.6555 258.361 20.8943C258.601 21.133 258.79 21.4157 258.929 21.7424C259.067 22.0565 259.137 22.3957 259.137 22.7601C259.137 23.137 259.067 23.4826 258.929 23.7967C258.79 24.1108 258.601 24.3872 258.361 24.6259C258.122 24.8647 257.838 25.0469 257.51 25.1725C257.195 25.3107 256.854 25.3798 256.489 25.3798C256.123 25.3798 255.776 25.3107 255.448 25.1725C255.133 25.0469 254.856 24.8647 254.616 24.6259C254.389 24.3872 254.206 24.1108 254.067 23.7967C253.941 23.4826 253.878 23.137 253.878 22.7601Z" fill="#F3BD00"/>
</svg>
